<svg width="27" height="13" viewBox="0 0 27 13" fill="none" xmlns="http://www.w3.org/2000/svg">
<path opacity="0.87" d="M19.9583 0.041748H14.7916V2.62508H19.9583C22.0895 2.62508 23.8333 4.36883 23.8333 6.50008C23.8333 8.63133 22.0895 10.3751 19.9583 10.3751H14.7916V12.9584H19.9583C23.5233 12.9584 26.4166 10.0651 26.4166 6.50008C26.4166 2.93508 23.5233 0.041748 19.9583 0.041748ZM12.2083 10.3751H7.04159C4.91034 10.3751 3.16659 8.63133 3.16659 6.50008C3.16659 4.36883 4.91034 2.62508 7.04159 2.62508H12.2083V0.041748H7.04159C3.47659 0.041748 0.583252 2.93508 0.583252 6.50008C0.583252 10.0651 3.47659 12.9584 7.04159 12.9584H12.2083V10.3751ZM8.33325 5.20841H18.6666V7.79175H8.33325V5.20841Z" fill="#F36E23"/>
</svg>
