<svg width="39" height="39" viewBox="0 0 39 39" fill="none" xmlns="http://www.w3.org/2000/svg">
<path d="M24.1112 0.375H4.625C2.2875 0.375 0.375 2.2875 0.375 4.625V34.375C0.375 36.7125 2.2875 38.625 4.625 38.625H34.375C36.7125 38.625 38.625 36.7125 38.625 34.375V14.8888C38.625 13.7625 38.1787 12.6788 37.3713 11.8925L27.1075 1.62875C26.3212 0.82125 25.2375 0.375 24.1112 0.375ZM11 25.875H28C29.1688 25.875 30.125 26.8312 30.125 28C30.125 29.1688 29.1688 30.125 28 30.125H11C9.83125 30.125 8.875 29.1688 8.875 28C8.875 26.8312 9.83125 25.875 11 25.875ZM11 17.375H28C29.1688 17.375 30.125 18.3312 30.125 19.5C30.125 20.6688 29.1688 21.625 28 21.625H11C9.83125 21.625 8.875 20.6688 8.875 19.5C8.875 18.3312 9.83125 17.375 11 17.375ZM11 8.875H21.625C22.7938 8.875 23.75 9.83125 23.75 11C23.75 12.1687 22.7938 13.125 21.625 13.125H11C9.83125 13.125 8.875 12.1687 8.875 11C8.875 9.83125 9.83125 8.875 11 8.875Z" fill="#F36E23"/>
</svg>
